_________________________  Visit us at _________________________
  
http://p2pdl.com  ____________________________  http://p2pdl.com


The Tigers Tail 2006 BRRip 720p x264 AAC - PRiSTiNE [P2PDL]

Genre: Comedy | Crime | Drama | Mystery | Thriller
Plot: After a chance encounter, a Dubliner (Gleeson) is stalked 
by a murderous facsimile of himself.
Director: John Boorman
Stars: Brendan Gleeson, Kim Cattrall, Ciarán Hinds
Rated: Rated R for a scene of sexuality, and brief drug content

Info: 
http://www.imdb.com/title/tt0490499/

General
Complete name                  : The Tigers Tail 2006 BRRip 720p x264 AAC - PRiSTiNE.mp4
Format                         : MPEG-4
File size                      : 693 MiB
Duration                       : 1h 47mn
Overall bit rate mode          : Variable
Overall bit rate               : 902 Kbps

Video
Format                         : AVC
Format profile                 : High 10@L4.1
Bit rate                       : 818 Kbps
Width                          : 1 280 pixels
Height                         : 688 pixels
Display aspect ratio           : 1.85:1
Frame rate mode                : Constant
Frame rate                     : 23.976 fps
Bit depth                      : 10 bits
Stream size                    : 629 MiB (91%)
Writing library                : x264 core 130 r2273 b3065e6

Audio
Format                         : AAC
Bit rate mode                  : Variable
Bit rate                       : 80.0 Kbps
Channel(s)                     : 2 channels
Channel positions              : Front: L R
Sampling rate                  : 48.0 KHz
Stream size                    : 61.5 MiB (9%)
Language                       : English

Subtitle                       : No
Source                         : 720p.BluRay.DTS.x264-EbP (Thanks)

Screenshots:
 
http://www.ultraimg.com/images/z5XdZ.jpg 
http://www.ultraimg.com/images/cwG2Y.jpg 
http://www.ultraimg.com/images/IEUp7.jpg 
http://www.ultraimg.com/images/iBajG.jpg 
http://www.ultraimg.com/images/BrQHN.jpg 
http://www.ultraimg.com/images/7mPaN.jpg 
http://www.ultraimg.com/images/Fmxvh.jpg 
http://www.ultraimg.com/images/eLEvI.jpg 
http://www.ultraimg.com/images/0miJ6.jpg

----------------------------------------------------------------------------------------------------


Encoded using revolutionary 10bit encoding, which enables us to provide you more crispier 
and sharper images at small sizes, just make sure you follow our instructions without a fault.
Recommend to you to use latest version of VLC player. Install K-Lite Codec Pack or shark007 codecs
in case of any kind of problem in playback (For non-VLC Media Player users). Alternatively, install
Core AVC codecs, the fastest decoder that there is coupled with Community Center Codec Pack and play
on Windows Media Player Classic. Check sample to be sure.
Enjoy!

Encoder Notes:Looking For Early Access To Anything You Can Provide DVDScr, R5, DVDR, BluRay, Direct
Audio, Music Releases and Seedboxes. We require dedicated servers, so as to do more 
and fast releases of movies.
If You Got anything to offer please contact us at "prg@hush.com".

Face book Fan Page:   
http://www.fb.me/p2pdl